<svg width="40" height="40" viewBox="0 0 40 40" fill="none" xmlns="http://www.w3.org/2000/svg">
<path d="M20 0C8.97091 0 0 8.97091 0 20C0 31.0291 8.97091 40 20 40C31.0291 40 40 31.0291 40 20C40 8.97091 31.0291 0 20 0ZM20 1.37931C30.2667 1.37931 38.6207 9.7333 38.6207 20C38.6207 30.2667 30.2667 38.6207 20 38.6207C9.7333 38.6207 1.37931 30.2667 1.37931 20C1.37931 9.7333 9.7333 1.37931 20 1.37931ZM20 4.13793C11.2527 4.13793 4.13793 11.2527 4.13793 20C4.13793 28.7473 11.2527 35.8621 20 35.8621C28.7473 35.8621 35.8621 28.7473 35.8621 20C35.8621 15.0997 33.6503 10.5523 29.7926 7.52155C29.4935 7.28718 29.0625 7.33836 28.8254 7.63739C28.5911 7.93642 28.6422 8.37015 28.9413 8.60722C32.4623 11.3739 34.4828 15.528 34.4828 20C34.4828 27.9849 27.9849 34.4828 20 34.4828C12.0151 34.4828 5.51724 27.9849 5.51724 20C5.51724 12.0151 12.0151 5.51724 20 5.51724C20.7085 5.51724 21.4197 5.56843 22.1121 5.6708C22.4919 5.72737 22.8421 5.46606 22.896 5.0889C22.9499 4.71175 22.6913 4.36153 22.3141 4.30496C21.5544 4.1945 20.7759 4.13793 20 4.13793ZM25.194 5.06466C24.9273 5.07812 24.6794 5.24784 24.5797 5.51724C24.4504 5.87284 24.6336 6.26886 24.9919 6.40086C25.5307 6.59752 26.0668 6.83459 26.5841 7.0986C26.6864 7.14978 26.7942 7.17403 26.8992 7.17403C27.1498 7.17403 27.3922 7.03664 27.5135 6.79688C27.6859 6.45744 27.5512 6.04256 27.2117 5.87015C26.646 5.5792 26.0587 5.32328 25.4661 5.10506C25.3772 5.07274 25.2856 5.05927 25.194 5.06466ZM20 8.27586C19.6202 8.27586 19.3103 8.58567 19.3103 8.96552V10.3448C19.3103 10.7247 19.6202 11.0345 20 11.0345C20.3798 11.0345 20.6897 10.7247 20.6897 10.3448V8.96552C20.6897 8.58567 20.3798 8.27586 20 8.27586ZM24.1245 9.08136C23.8551 9.08405 23.6018 9.24569 23.4941 9.51239L22.9768 10.7893C22.8341 11.1422 23.0038 11.5463 23.3594 11.6891C23.4429 11.7214 23.5318 11.7376 23.618 11.7376C23.8901 11.7376 24.1487 11.576 24.2565 11.3066L24.7737 10.0269C24.9165 9.67403 24.7441 9.27263 24.3912 9.12985C24.3023 9.09483 24.2134 9.07866 24.1245 9.08136ZM27.6536 11.3712C27.4758 11.3766 27.3033 11.4467 27.1686 11.5841L26.2096 12.5754C25.9456 12.8502 25.9537 13.2866 26.2284 13.5506C26.3605 13.68 26.5329 13.7446 26.7053 13.7446C26.8885 13.7446 27.0663 13.6719 27.201 13.5345L28.16 12.5431C28.4267 12.2683 28.4186 11.8319 28.1466 11.5652C28.0092 11.4332 27.8314 11.3685 27.6536 11.3712ZM20 12.4138C19.6202 12.4138 19.3103 12.7236 19.3103 13.1034V18.812C18.9009 19.0517 18.6207 19.4908 18.6207 20C18.6207 20.7597 19.2403 21.3793 20 21.3793C20.1239 21.3793 20.2398 21.3578 20.3529 21.3281L24.6848 25.66C24.8195 25.7947 24.9946 25.8621 25.1724 25.8621C25.3502 25.8621 25.5253 25.7947 25.66 25.66C25.9294 25.3906 25.9294 24.9542 25.66 24.6848L21.3281 20.3529C21.3578 20.2398 21.3793 20.1239 21.3793 20C21.3793 19.4908 21.0991 19.0517 20.6897 18.812V13.1034C20.6897 12.7236 20.3798 12.4138 20 12.4138ZM30.0674 14.8222C29.9784 14.8249 29.8869 14.8438 29.8006 14.8815L28.5399 15.4418C28.1923 15.5981 28.0361 16.0048 28.1897 16.3551C28.3055 16.611 28.556 16.7645 28.82 16.7645C28.9143 16.7645 29.0086 16.743 29.1002 16.7026L30.361 16.1422C30.7085 15.986 30.8648 15.5792 30.7112 15.2317C30.5927 14.9704 30.3367 14.8168 30.0674 14.8222ZM8.96552 19.3103C8.58567 19.3103 8.27586 19.6202 8.27586 20C8.27586 20.3798 8.58567 20.6897 8.96552 20.6897H10.3448C10.7247 20.6897 11.0345 20.3798 11.0345 20C11.0345 19.6202 10.7247 19.3103 10.3448 19.3103H8.96552ZM29.6552 19.3103C29.2753 19.3103 28.9655 19.6202 28.9655 20C28.9655 20.3798 29.2753 20.6897 29.6552 20.6897H31.0345C31.4143 20.6897 31.7241 20.3798 31.7241 20C31.7241 19.6202 31.4143 19.3103 31.0345 19.3103H29.6552ZM28.9413 22.9283C28.6719 22.931 28.4186 23.0927 28.3109 23.3594C28.1708 23.7123 28.3405 24.1137 28.6934 24.2565L29.9731 24.7737C30.0566 24.8087 30.1455 24.8249 30.229 24.8249C30.5038 24.8249 30.7624 24.6606 30.8702 24.3912C31.0129 24.0383 30.8432 23.6369 30.4876 23.4941L29.2107 22.9768C29.1218 22.9418 29.0302 22.9256 28.9413 22.9283ZM26.9343 26.0156C26.7592 26.021 26.5814 26.0911 26.4494 26.2284C26.3443 26.3362 26.2958 26.4736 26.2742 26.611C26.1584 26.8642 26.1988 27.174 26.4089 27.3842L27.3141 28.2893C27.4488 28.424 27.6239 28.4914 27.8017 28.4914C27.9795 28.4914 28.1546 28.424 28.2893 28.2893C28.3136 28.2651 28.327 28.2301 28.3486 28.2031C28.3755 28.1816 28.4079 28.1708 28.4348 28.1439C28.6988 27.8691 28.6907 27.4327 28.4159 27.1686L27.4246 26.2096C27.2872 26.0776 27.1094 26.0129 26.9343 26.0156ZM20 28.9655C19.6202 28.9655 19.3103 29.2753 19.3103 29.6552V31.0345C19.3103 31.4143 19.6202 31.7241 20 31.7241C20.3798 31.7241 20.6897 31.4143 20.6897 31.0345V29.6552C20.6897 29.2753 20.3798 28.9655 20 28.9655Z" fill="white"/>
</svg>
